<svg width="88" height="14" viewBox="0 0 88 14" fill="none" xmlns="http://www.w3.org/2000/svg">
<rect width="44" height="14" fill="#050A8B"/>
<rect x="44" width="44" height="14" fill="#E8FEE2"/>
<path d="M2.75852 2.27273H5.03409L7.4375 8.13636H7.53977L9.94318 2.27273H12.2188V11H10.429V5.3196H10.3565L8.09801 10.9574H6.87926L4.62074 5.2983H4.5483V11H2.75852V2.27273ZM19.1296 2.27273H20.9748V7.94034C20.9748 8.5767 20.8228 9.13352 20.5188 9.6108C20.2177 10.0881 19.7958 10.4602 19.2532 10.7273C18.7106 10.9915 18.0785 11.1236 17.3569 11.1236C16.6325 11.1236 15.9989 10.9915 15.4563 10.7273C14.9137 10.4602 14.4918 10.0881 14.1907 9.6108C13.8896 9.13352 13.739 8.5767 13.739 7.94034V2.27273H15.5842V7.78267C15.5842 8.11506 15.6566 8.41051 15.8015 8.66903C15.9492 8.92756 16.1566 9.13068 16.4237 9.27841C16.6907 9.42614 17.0018 9.5 17.3569 9.5C17.7148 9.5 18.0259 9.42614 18.2901 9.27841C18.5572 9.13068 18.7631 8.92756 18.908 8.66903C19.0558 8.41051 19.1296 8.11506 19.1296 7.78267V2.27273ZM27.2273 4.78267C27.1932 4.43892 27.0469 4.17187 26.7884 3.98153C26.5298 3.79119 26.179 3.69602 25.7358 3.69602C25.4347 3.69602 25.1804 3.73864 24.973 3.82386C24.7656 3.90625 24.6065 4.02131 24.4957 4.16903C24.3878 4.31676 24.3338 4.48438 24.3338 4.67188C24.3281 4.82812 24.3608 4.96449 24.4318 5.08097C24.5057 5.19744 24.6065 5.2983 24.7344 5.38352C24.8622 5.46591 25.0099 5.53835 25.1776 5.60085C25.3452 5.66051 25.5241 5.71165 25.7145 5.75426L26.4986 5.94176C26.8793 6.02699 27.2287 6.14062 27.5469 6.28267C27.8651 6.42472 28.1406 6.59943 28.3736 6.80682C28.6065 7.0142 28.7869 7.25852 28.9148 7.53977C29.0455 7.82102 29.1122 8.14347 29.1151 8.5071C29.1122 9.04119 28.9759 9.50426 28.706 9.89631C28.4389 10.2855 28.0526 10.5881 27.5469 10.804C27.044 11.017 26.4375 11.1236 25.7273 11.1236C25.0227 11.1236 24.4091 11.0156 23.8864 10.7997C23.3665 10.5838 22.9602 10.2642 22.6676 9.84091C22.3778 9.41477 22.2259 8.88778 22.2116 8.25994H23.9972C24.017 8.55256 24.1009 8.79687 24.2486 8.9929C24.3991 9.18608 24.5994 9.33239 24.8494 9.43182C25.1023 9.52841 25.3878 9.5767 25.706 9.5767C26.0185 9.5767 26.2898 9.53125 26.5199 9.44034C26.7528 9.34943 26.9332 9.22301 27.0611 9.06108C27.1889 8.89915 27.2528 8.71307 27.2528 8.50284C27.2528 8.30682 27.1946 8.14205 27.0781 8.00852C26.9645 7.875 26.7969 7.76136 26.5753 7.66761C26.3565 7.57386 26.0881 7.48864 25.7699 7.41193L24.8196 7.1733C24.0838 6.99432 23.5028 6.71449 23.0767 6.33381C22.6506 5.95312 22.4389 5.44034 22.4418 4.79545C22.4389 4.26705 22.5795 3.8054 22.8636 3.41051C23.1506 3.01562 23.544 2.70739 24.044 2.4858C24.544 2.2642 25.1122 2.15341 25.7486 2.15341C26.3963 2.15341 26.9616 2.2642 27.4446 2.4858C27.9304 2.70739 28.3082 3.01562 28.5781 3.41051C28.848 3.8054 28.9872 4.26278 28.9957 4.78267H27.2273ZM32.2013 2.27273V11H30.3562V2.27273H32.2013ZM41.4197 5.32812H39.5533C39.5192 5.08665 39.4496 4.87216 39.3445 4.68466C39.2393 4.49432 39.1044 4.33239 38.9396 4.19886C38.7749 4.06534 38.5845 3.96307 38.3686 3.89205C38.1555 3.82102 37.924 3.78551 37.674 3.78551C37.2223 3.78551 36.8288 3.89773 36.4936 4.12216C36.1584 4.34375 35.8984 4.66761 35.7138 5.09375C35.5291 5.51705 35.4368 6.03125 35.4368 6.63636C35.4368 7.25852 35.5291 7.78125 35.7138 8.20455C35.9013 8.62784 36.1626 8.94744 36.4979 9.16335C36.8331 9.37926 37.2209 9.48722 37.6612 9.48722C37.9084 9.48722 38.1371 9.45455 38.3473 9.3892C38.5604 9.32386 38.7493 9.22869 38.9141 9.10369C39.0788 8.97585 39.2152 8.82102 39.3232 8.6392C39.4339 8.45739 39.5107 8.25 39.5533 8.01705L41.4197 8.02557C41.3714 8.42614 41.2507 8.8125 41.0575 9.18466C40.8672 9.55398 40.6101 9.88494 40.2862 10.1776C39.9652 10.4673 39.5817 10.6974 39.1357 10.8679C38.6925 11.0355 38.1911 11.1193 37.6314 11.1193C36.853 11.1193 36.157 10.9432 35.5433 10.5909C34.9325 10.2386 34.4496 9.72869 34.0945 9.06108C33.7422 8.39347 33.5661 7.58523 33.5661 6.63636C33.5661 5.68466 33.745 4.875 34.103 4.20739C34.4609 3.53977 34.9467 3.03125 35.5604 2.68182C36.174 2.32955 36.8643 2.15341 37.6314 2.15341C38.1371 2.15341 38.6058 2.22443 39.0376 2.36648C39.4723 2.50852 39.8572 2.71591 40.1925 2.98864C40.5277 3.25852 40.8004 3.58949 41.0107 3.98153C41.2237 4.37358 41.3601 4.82244 41.4197 5.32812Z" fill="white"/>
<path d="M46.7585 11V2.27273H50.2017C50.8636 2.27273 51.4276 2.39915 51.8935 2.65199C52.3594 2.90199 52.7145 3.25 52.9588 3.69602C53.206 4.1392 53.3295 4.65057 53.3295 5.23011C53.3295 5.80966 53.2045 6.32102 52.9545 6.7642C52.7045 7.20739 52.3423 7.55256 51.8679 7.79972C51.3963 8.04687 50.8253 8.17045 50.1548 8.17045H47.9602V6.69176H49.8565C50.2116 6.69176 50.5043 6.63068 50.7344 6.50852C50.9673 6.38352 51.1406 6.21165 51.2543 5.9929C51.3707 5.77131 51.429 5.51705 51.429 5.23011C51.429 4.94034 51.3707 4.6875 51.2543 4.47159C51.1406 4.25284 50.9673 4.08381 50.7344 3.96449C50.5014 3.84233 50.206 3.78125 49.848 3.78125H48.6037V11H46.7585ZM53.0881 11V2.27273H54.9332V9.47869H58.6747V11H53.0881ZM60.1836 11H58.2063L61.2191 2.27273H63.5969L66.6054 11H64.6282L62.4421 4.26705H62.3739L60.1836 11ZM60.06 7.5696H64.7304V9.00994H60.06V7.5696ZM64.8139 2.27273H66.8806L68.8707 6.03125H68.9559L70.946 2.27273H73.0127L69.8295 7.91477V11H67.9971V7.91477L64.8139 2.27273ZM72.5806 11V2.27273H78.4612V3.79403H74.4257V5.87358H78.1587V7.39489H74.4257V9.47869H78.4783V11H72.5806ZM78.4882 11V2.27273H81.9314C82.5905 2.27273 83.153 2.39062 83.6189 2.62642C84.0876 2.85937 84.4442 3.19034 84.6885 3.61932C84.9357 4.04545 85.0592 4.54687 85.0592 5.12358C85.0592 5.70312 84.9342 6.2017 84.6842 6.61932C84.4342 7.03409 84.072 7.35227 83.5976 7.57386C83.126 7.79545 82.555 7.90625 81.8845 7.90625H79.5791V6.4233H81.5862C81.9385 6.4233 82.2311 6.375 82.4641 6.27841C82.697 6.18182 82.8703 6.03693 82.9839 5.84375C83.1004 5.65057 83.1587 5.41051 83.1587 5.12358C83.1587 4.83381 83.1004 4.58949 82.9839 4.39062C82.8703 4.19176 82.6956 4.04119 82.4598 3.93892C82.2268 3.83381 81.9328 3.78125 81.5777 3.78125H80.3334V11H78.4882ZM83.2013 7.02841L85.3703 11H83.3334L81.2112 7.02841H83.2013Z" fill="#FB0D0D"/>
</svg>
