<svg width="147" height="22" viewBox="0 0 147 22" fill="none" xmlns="http://www.w3.org/2000/svg">
<rect y="1" width="47" height="21" fill="#0B055A" fill-opacity="0.97"/>
<rect x="47" y="1" width="65" height="21" fill="#FFFCFC"/>
<path d="M47.1378 18V4.90909H52.3026C53.2955 4.90909 54.1413 5.09872 54.8402 5.47798C55.5391 5.85298 56.0717 6.375 56.4382 7.04403C56.8089 7.70881 56.9943 8.47585 56.9943 9.34517C56.9943 10.2145 56.8068 10.9815 56.4318 11.6463C56.0568 12.3111 55.5135 12.8288 54.8018 13.1996C54.0945 13.5703 53.2379 13.7557 52.2322 13.7557H48.9403V11.5376H51.7848C52.3175 11.5376 52.7564 11.446 53.1016 11.2628C53.451 11.0753 53.7109 10.8175 53.8814 10.4893C54.0561 10.157 54.1435 9.77557 54.1435 9.34517C54.1435 8.91051 54.0561 8.53125 53.8814 8.20739C53.7109 7.87926 53.451 7.62571 53.1016 7.44673C52.7521 7.26349 52.3089 7.17188 51.772 7.17188H49.9055V18H47.1378ZM57.7121 18V4.90909H60.4798V15.718H66.0921V18H57.7121ZM69.4353 18H66.4694L70.9886 4.90909H74.5554L79.0682 18H76.1023L72.8231 7.90057H72.7209L69.4353 18ZM69.25 12.8544H76.2557V15.0149H69.25V12.8544ZM77.4608 4.90909H80.561L83.546 10.5469H83.6739L86.659 4.90909H89.7591L84.9843 13.3722V18H82.2357V13.3722L77.4608 4.90909ZM90.1908 18V4.90909H99.0119V7.19105H92.9586V10.3104H98.558V12.5923H92.9586V15.718H99.0374V18H90.1908ZM100.132 18V4.90909H105.297C106.286 4.90909 107.129 5.08594 107.828 5.43963C108.531 5.78906 109.066 6.28551 109.433 6.92898C109.803 7.56818 109.989 8.32031 109.989 9.18537C109.989 10.0547 109.801 10.8026 109.426 11.429C109.051 12.0511 108.508 12.5284 107.796 12.8608C107.089 13.1932 106.232 13.3594 105.227 13.3594H101.769V11.1349H104.779C105.308 11.1349 105.747 11.0625 106.096 10.9176C106.446 10.7727 106.705 10.5554 106.876 10.2656C107.051 9.97585 107.138 9.61577 107.138 9.18537C107.138 8.75071 107.051 8.38423 106.876 8.08594C106.705 7.78764 106.443 7.56179 106.09 7.40838C105.74 7.25071 105.299 7.17188 104.767 7.17188H102.9V18H100.132ZM107.202 12.0426L110.455 18H107.4L104.217 12.0426H107.202Z" fill="#FE0404"/>
<path d="M3.89205 4.90909H4.76136L9.80469 16.8494H9.89418L14.9375 4.90909H15.8068V18H15.0398V6.80753H14.9631L10.2266 18H9.4723L4.7358 6.80753H4.65909V18H3.89205V4.90909ZM26.1151 4.90909H26.9141V13.5767C26.9141 14.4673 26.7074 15.2621 26.2941 15.9609C25.8807 16.6555 25.3097 17.2053 24.581 17.6101C23.8566 18.0107 23.0235 18.2109 22.0817 18.2109C21.1442 18.2109 20.3111 18.0107 19.5824 17.6101C18.8537 17.2053 18.2806 16.6534 17.8629 15.9545C17.4496 15.2557 17.245 14.4631 17.2493 13.5767V4.90909H18.0483V13.532C18.0483 14.2862 18.2188 14.9574 18.5597 15.5455C18.9049 16.1335 19.38 16.598 19.9851 16.9389C20.5902 17.2756 21.2891 17.4439 22.0817 17.4439C22.8743 17.4439 23.5732 17.2756 24.1783 16.9389C24.7834 16.598 25.2564 16.1335 25.5973 15.5455C25.9425 14.9574 26.1151 14.2862 26.1151 13.532V4.90909ZM35.4134 8.18182C35.3452 7.3679 35.0128 6.70952 34.4162 6.20668C33.8239 5.70384 33.0569 5.45241 32.1151 5.45241C31.4802 5.45241 30.9155 5.5696 30.4212 5.80398C29.9269 6.03835 29.5391 6.35795 29.2579 6.76278C28.9766 7.16761 28.836 7.6321 28.836 8.15625C28.836 8.4929 28.8999 8.79758 29.0277 9.07031C29.1598 9.33878 29.3452 9.57955 29.5838 9.79261C29.8225 10.0014 30.1059 10.1847 30.434 10.3423C30.7621 10.5 31.1243 10.6385 31.5206 10.7578L32.9525 11.1797C33.4425 11.3288 33.8942 11.5014 34.3076 11.6974C34.7252 11.8935 35.0874 12.1278 35.3942 12.4006C35.7053 12.669 35.9461 12.9844 36.1165 13.3466C36.2912 13.7088 36.3786 14.1264 36.3786 14.5994C36.3786 15.2898 36.1996 15.9077 35.8417 16.4531C35.488 16.9986 34.983 17.429 34.3267 17.7443C33.6748 18.0554 32.9056 18.2109 32.0192 18.2109C31.1755 18.2109 30.4404 18.0682 29.814 17.7827C29.1918 17.4972 28.6996 17.1009 28.3374 16.5938C27.9752 16.0824 27.7706 15.4943 27.7238 14.8295H28.5419C28.5846 15.3707 28.7571 15.8395 29.0597 16.2358C29.3665 16.6278 29.7735 16.9304 30.2806 17.1435C30.7877 17.3565 31.3672 17.4631 32.0192 17.4631C32.7223 17.4631 33.3424 17.3437 33.8793 17.1051C34.4162 16.8622 34.836 16.5256 35.1385 16.0952C35.4411 15.6648 35.5924 15.1641 35.5924 14.593C35.5924 14.1328 35.4837 13.7386 35.2664 13.4105C35.049 13.0824 34.7273 12.799 34.3012 12.5604C33.8793 12.3217 33.3552 12.1087 32.7287 11.9212L31.201 11.4609C30.1783 11.1499 29.3963 10.7259 28.8552 10.1889C28.3182 9.65199 28.0498 8.98295 28.0498 8.18182C28.0498 7.50852 28.2287 6.91193 28.5867 6.39205C28.9446 5.8679 29.4304 5.45668 30.0441 5.15838C30.662 4.86009 31.3587 4.71094 32.1343 4.71094C32.9141 4.71094 33.6023 4.86222 34.1989 5.16477C34.7955 5.46307 35.2685 5.87429 35.6179 6.39844C35.9674 6.91832 36.1613 7.51278 36.1996 8.18182H35.4134ZM37.9953 4.90909V18H37.1963V4.90909H37.9953ZM49.4157 9H48.5976C48.5123 8.55682 48.3525 8.12855 48.1182 7.7152C47.8838 7.29758 47.5812 6.92258 47.2105 6.5902C46.844 6.25355 46.4179 5.98722 45.9321 5.79119C45.4463 5.59517 44.9094 5.49716 44.3213 5.49716C43.4605 5.49716 42.6679 5.72727 41.9434 6.1875C41.2233 6.64347 40.6459 7.31463 40.2112 8.20099C39.7808 9.08736 39.5656 10.1719 39.5656 11.4545C39.5656 12.7457 39.7808 13.8345 40.2112 14.7209C40.6459 15.6072 41.2233 16.2784 41.9434 16.7344C42.6679 17.1861 43.4605 17.4119 44.3213 17.4119C44.9094 17.4119 45.4463 17.3161 45.9321 17.1243C46.4179 16.9283 46.844 16.6641 47.2105 16.3317C47.5812 15.995 47.8838 15.6179 48.1182 15.2003C48.3525 14.7827 48.5123 14.3523 48.5976 13.9091H49.4157C49.322 14.4375 49.1409 14.9553 48.8724 15.4624C48.6082 15.9695 48.2588 16.4297 47.8241 16.843C47.3937 17.2521 46.8845 17.5781 46.2964 17.821C45.7126 18.0597 45.0542 18.179 44.3213 18.179C43.2304 18.179 42.2694 17.902 41.4385 17.348C40.6075 16.7898 39.9555 16.0057 39.4825 14.9957C39.0138 13.9858 38.7794 12.8054 38.7794 11.4545C38.7794 10.1037 39.0138 8.9233 39.4825 7.91335C39.9555 6.90341 40.6075 6.12145 41.4385 5.56747C42.2694 5.00923 43.2304 4.73011 44.3213 4.73011C45.0542 4.73011 45.7126 4.85156 46.2964 5.09446C46.8845 5.3331 47.3937 5.65696 47.8241 6.06605C48.2588 6.47088 48.6082 6.92685 48.8724 7.43395C49.1409 7.94105 49.322 8.46307 49.4157 9Z" fill="#FFFFFB"/>
</svg>
